<?xml version="1.0" encoding="UTF-8"?>
<svg xmlns="http://www.w3.org/2000/svg" xmlns:xlink="http://www.w3.org/1999/xlink" width="507.088pt" height="166.559pt" viewBox="0 0 507.088 166.559">
<defs>
<clipPath id="clip-0">
<path clip-rule="nonzero" d="M 467 123 L 502 123 L 502 166.121094 L 467 166.121094 Z M 467 123 "/>
</clipPath>
<clipPath id="clip-1">
<path clip-rule="nonzero" d="M 0.214844 0 L 169 0 L 169 166 L 0.214844 166 Z M 0.214844 0 "/>
</clipPath>
<clipPath id="clip-2">
<path clip-rule="nonzero" d="M 407 1 L 505.964844 1 L 505.964844 94 L 407 94 Z M 407 1 "/>
</clipPath>
</defs>
<path fill-rule="nonzero" fill="rgb(11.372375%, 11.372375%, 10.588074%)" fill-opacity="1" d="M 195.6875 165.417969 L 205.203125 165.417969 L 205.203125 124.554688 L 195.6875 124.554688 Z M 195.6875 165.417969 "/>
<path fill-rule="nonzero" fill="rgb(11.372375%, 11.372375%, 10.588074%)" fill-opacity="1" d="M 252.253906 124.554688 L 237.257812 149.921875 L 221.953125 124.554688 L 214.132812 124.554688 L 214.132812 165.417969 L 222.949219 165.417969 L 222.949219 141.316406 L 234.972656 161.039062 L 239.175781 161.039062 L 251.214844 141.042969 L 251.320312 165.417969 L 260.136719 165.417969 L 260.136719 124.554688 Z M 252.253906 124.554688 "/>
<path fill-rule="nonzero" fill="rgb(11.372375%, 11.372375%, 10.588074%)" fill-opacity="1" d="M 292.882812 144.578125 C 291.402344 145.824219 289.222656 146.445312 286.34375 146.445312 L 278.699219 146.445312 L 278.699219 132.261719 L 286.34375 132.261719 C 289.222656 132.261719 291.402344 132.871094 292.882812 134.097656 C 294.359375 135.324219 295.101562 137.066406 295.101562 139.324219 C 295.101562 141.582031 294.359375 143.332031 292.882812 144.578125 M 296.328125 126.335938 C 293.679688 125.148438 290.527344 124.554688 286.871094 124.554688 L 269.183594 124.554688 L 269.183594 165.417969 L 278.699219 165.417969 L 278.699219 154.152344 L 286.871094 154.152344 C 290.527344 154.152344 293.679688 153.550781 296.328125 152.34375 C 298.972656 151.136719 301.015625 149.433594 302.457031 147.234375 C 303.894531 145.035156 304.617188 142.398438 304.617188 139.324219 C 304.617188 136.289062 303.894531 133.660156 302.457031 131.441406 C 301.015625 129.226562 298.972656 127.523438 296.328125 126.335938 "/>
<path fill-rule="nonzero" fill="rgb(11.372375%, 11.372375%, 10.588074%)" fill-opacity="1" d="M 356.367188 149.480469 L 362.847656 133.902344 L 369.324219 149.480469 Z M 358.207031 124.554688 L 340.519531 164.367188 L 340.519531 157.714844 L 320.144531 157.714844 L 320.144531 124.554688 L 310.628906 124.554688 L 310.628906 165.417969 L 349.742188 165.417969 L 353.382812 156.660156 L 372.3125 156.660156 L 375.949219 165.417969 L 385.875 165.417969 L 367.546875 124.554688 Z M 358.207031 124.554688 "/>
<path fill-rule="nonzero" fill="rgb(11.372375%, 11.372375%, 10.588074%)" fill-opacity="1" d="M 417.574219 149.347656 L 397.257812 124.554688 L 389.4375 124.554688 L 389.4375 165.417969 L 398.777344 165.417969 L 398.777344 140.628906 L 419.09375 165.417969 L 426.914062 165.417969 L 426.914062 124.554688 L 417.574219 124.554688 Z M 417.574219 149.347656 "/>
<path fill-rule="nonzero" fill="rgb(11.372375%, 11.372375%, 10.588074%)" fill-opacity="1" d="M 431.292969 132.261719 L 444.367188 132.261719 L 444.367188 165.417969 L 453.824219 165.417969 L 453.824219 132.261719 L 466.902344 132.261719 L 466.902344 124.554688 L 431.292969 124.554688 Z M 431.292969 132.261719 "/>
<g clip-path="url(#clip-0)">
<path fill-rule="nonzero" fill="rgb(11.372375%, 11.372375%, 10.588074%)" fill-opacity="1" d="M 500.4375 148.167969 C 499.566406 146.746094 498.425781 145.621094 497.027344 144.78125 C 495.625 143.945312 494.085938 143.253906 492.414062 142.710938 C 490.738281 142.164062 489.046875 141.707031 487.335938 141.339844 C 485.621094 140.96875 484.066406 140.597656 482.664062 140.226562 C 481.261719 139.859375 480.132812 139.34375 479.277344 138.679688 C 478.421875 138.019531 477.992188 137.144531 477.992188 136.054688 C 477.992188 135.199219 478.257812 134.421875 478.78125 133.71875 C 479.308594 133.019531 480.132812 132.464844 481.261719 132.054688 C 482.390625 131.648438 483.890625 131.441406 485.757812 131.441406 C 487.546875 131.441406 489.417969 131.703125 491.363281 132.230469 C 493.308594 132.757812 495.195312 133.542969 497.027344 134.59375 L 500 127.472656 C 498.132812 126.304688 495.945312 125.410156 493.433594 124.789062 C 490.925781 124.164062 488.386719 123.855469 485.816406 123.855469 C 481.964844 123.855469 478.761719 124.429688 476.214844 125.574219 C 473.664062 126.726562 471.769531 128.261719 470.523438 130.1875 C 469.277344 132.113281 468.652344 134.246094 468.652344 136.582031 C 468.652344 138.71875 469.070312 140.5 469.910156 141.921875 C 470.746094 143.34375 471.875 144.488281 473.296875 145.367188 C 474.714844 146.242188 476.269531 146.941406 477.964844 147.46875 C 479.65625 147.992188 481.339844 148.441406 483.011719 148.808594 C 484.6875 149.179688 486.234375 149.570312 487.65625 149.976562 C 489.078125 150.386719 490.214844 150.910156 491.070312 151.554688 C 491.925781 152.195312 492.355469 153.0625 492.355469 154.152344 C 492.355469 155.007812 492.082031 155.757812 491.535156 156.398438 C 490.992188 157.042969 490.148438 157.558594 488.996094 157.945312 C 487.847656 158.335938 486.34375 158.53125 484.472656 158.53125 C 482.023438 158.53125 479.589844 158.132812 477.175781 157.332031 C 474.761719 156.535156 472.703125 155.515625 470.988281 154.269531 L 467.777344 161.390625 C 469.605469 162.792969 472.03125 163.929688 475.046875 164.804688 C 478.0625 165.679688 481.207031 166.117188 484.472656 166.117188 C 488.328125 166.117188 491.535156 165.535156 494.105469 164.367188 C 496.675781 163.199219 498.589844 161.664062 499.855469 159.753906 C 501.121094 157.847656 501.753906 155.75 501.753906 153.453125 C 501.753906 151.351562 501.316406 149.589844 500.4375 148.167969 "/>
</g>
<g clip-path="url(#clip-1)">
<path fill-rule="nonzero" fill="rgb(89.019775%, 6.274414%, 7.450867%)" fill-opacity="1" d="M 21.816406 5.726562 C 13.179688 5.285156 6.605469 10.867188 5.921875 19.523438 C 6.113281 62.433594 5.515625 105.410156 6.226562 148.285156 C 7.414062 154.707031 12.410156 159.546875 19.035156 160.011719 L 149.355469 160.011719 C 157.105469 159.3125 162.003906 153.199219 162.484375 145.65625 L 162.484375 19.265625 C 161.5 10.660156 156.449219 6.15625 147.882812 5.644531 Z M 17.890625 0.0820312 L 150.335938 0 C 160.082031 0.742188 167.339844 8.386719 168.128906 18.035156 L 168.128906 147.375 C 167.421875 156.222656 161.109375 164.035156 152.222656 165.578125 C 107.007812 166.101562 61.625 166.09375 16.410156 165.582031 C 8.382812 164.15625 2.265625 157.863281 0.628906 149.953125 C -0.195312 106.050781 0.503906 62.003906 0.277344 18.050781 C 1.132812 8.589844 8.390625 1.039062 17.890625 0.0820312 "/>
</g>
<path fill-rule="nonzero" fill="rgb(11.372375%, 11.372375%, 10.588074%)" fill-opacity="1" d="M 94.992188 120.003906 L 74.382812 124.175781 C 74.941406 128.90625 74.539062 134.710938 78.550781 138.042969 C 81.457031 140.457031 85.003906 140.785156 88.285156 138.9375 C 94.816406 135.265625 93.386719 126.261719 94.992188 120.003906 M 73.644531 118.535156 L 95.480469 113.988281 C 96.253906 113.515625 96.527344 106.816406 96.953125 105.527344 L 72.933594 110.457031 Z M 97.679688 99.871094 L 98.671875 91.046875 L 71.417969 97.082031 L 72.171875 104.789062 Z M 63.09375 77.917969 C 63.019531 80.9375 63.09375 83.976562 63.09375 87 C 63.09375 87.144531 63.757812 88.609375 63.917969 88.875 C 65.214844 91.035156 67.960938 91.519531 70.300781 91.261719 L 104.890625 83.699219 C 105.527344 83.355469 105.226562 78.703125 105.300781 77.796875 L 63.210938 77.3125 C 62.609375 77.683594 63.09375 77.839844 63.09375 77.917969 M 114.351562 71.878906 C 118.355469 59.851562 127.90625 36.871094 115.722656 27.007812 C 105.125 18.425781 94.558594 28.632812 83.871094 28.628906 C 73.890625 28.625 65.605469 19.695312 54.832031 25.488281 C 45.652344 30.421875 45.730469 41.457031 47.464844 50.359375 C 48.890625 57.679688 51.339844 64.78125 53.558594 71.875 Z M 111.1875 77.796875 L 111.1875 83.320312 C 111.1875 83.738281 110.699219 85.328125 110.496094 85.816406 C 109.484375 88.292969 107.363281 89.230469 104.917969 89.808594 L 103.828125 98.410156 C 105.746094 97.800781 108.160156 96.925781 109.433594 99.058594 C 111.777344 102.996094 105.464844 103.957031 102.949219 104.527344 L 101.859375 112.515625 C 103.71875 112.261719 107.234375 111.066406 107.9375 113.804688 C 108.980469 117.855469 103.808594 118.082031 101.140625 118.542969 C 99.425781 127.449219 100.667969 138.839844 91.5625 143.933594 C 85.832031 147.140625 79.296875 146.609375 74.378906 142.214844 C 69.726562 138.0625 68.96875 131.542969 68.734375 125.648438 C 66.523438 125.933594 63.074219 127.355469 62.054688 124.355469 C 60.90625 120.976562 65.726562 120.351562 68 120 L 67.019531 111.414062 C 66.652344 111.042969 60.242188 113.664062 60.136719 109.320312 C 60.058594 106.15625 64.0625 106.183594 66.269531 105.757812 L 65.308594 96.808594 C 62.222656 96.148438 59.84375 94.507812 58.464844 91.625 C 58.179688 91.027344 57.203125 88.460938 57.203125 87.980469 L 57.203125 78.164062 L 56.847656 77.855469 C 53.261719 78.257812 49.707031 78.609375 48.078125 74.777344 C 45.984375 69.84375 43.847656 60.65625 42.601562 55.226562 C 40.449219 45.871094 39.023438 36.773438 44.15625 28.066406 C 49.628906 18.78125 59.429688 16.484375 69.523438 18.730469 C 77.117188 20.421875 80.453125 24.21875 88.910156 22.023438 C 99.171875 19.363281 106.464844 14.71875 117.152344 20.914062 C 131.980469 29.515625 127.691406 49.066406 123.769531 62.527344 C 122.816406 65.789062 121.1875 72.15625 119.734375 74.933594 C 118.003906 78.234375 114.417969 78.183594 111.1875 77.796875 "/>
<path fill-rule="nonzero" fill="rgb(11.372375%, 11.372375%, 10.588074%)" fill-opacity="1" d="M 293.277344 30.152344 L 293.277344 28.085938 C 293.277344 15.546875 287.765625 0.597656 261.5 0.597656 L 225.09375 0.597656 C 213.242188 0.597656 205.335938 3.15625 200.21875 8.644531 C 195.105469 14.128906 192.722656 22.589844 192.722656 35.273438 L 192.722656 62.234375 C 192.722656 85.707031 201.800781 94.855469 225.09375 94.855469 L 261.5 94.855469 C 286.148438 94.855469 293.277344 86.445312 293.277344 57.355469 L 293.277344 48.351562 L 239.953125 48.351562 L 239.953125 61.476562 L 280.519531 61.476562 L 280.519531 62.359375 C 280.519531 79.191406 276.210938 81.730469 261.378906 81.730469 L 224.976562 81.730469 C 209.578125 81.730469 205.125 77.359375 205.125 62.234375 L 205.125 35.273438 C 205.125 18.152344 209.207031 13.722656 224.976562 13.722656 L 261.378906 13.722656 C 278.246094 13.722656 280.519531 20.984375 280.519531 28.085938 L 280.519531 30.152344 Z M 293.277344 30.152344 "/>
<path fill-rule="nonzero" fill="rgb(11.372375%, 11.372375%, 10.588074%)" fill-opacity="1" d="M 387.976562 59.664062 C 387.976562 77.109375 385.207031 82.917969 368.808594 82.917969 L 313.714844 82.917969 L 313.714844 13.5625 L 368.6875 13.5625 C 384.011719 13.5625 387.976562 18.1875 387.976562 36.046875 Z M 368.09375 2.8125 L 303.511719 2.8125 L 303.511719 93.667969 L 368.09375 93.667969 C 390.023438 93.667969 398.179688 84.453125 398.179688 59.664062 L 398.179688 36.046875 C 398.179688 10.886719 390.867188 2.8125 368.09375 2.8125 "/>
<g clip-path="url(#clip-2)">
<path fill-rule="nonzero" fill="rgb(11.372375%, 11.372375%, 10.588074%)" fill-opacity="1" d="M 505.964844 28.96875 L 505.964844 28.085938 C 505.964844 10.386719 495.890625 1.785156 475.164062 1.785156 L 439 1.785156 C 416.496094 1.785156 407.726562 11.171875 407.726562 35.273438 L 407.726562 60.949219 C 407.726562 84.496094 416.496094 93.671875 439 93.671875 L 475.164062 93.671875 C 496.464844 93.671875 505.964844 85.558594 505.964844 67.367188 L 505.964844 66.484375 L 495.761719 66.484375 L 495.761719 67.367188 C 495.761719 78.558594 490.019531 82.917969 475.285156 82.917969 L 439.117188 82.917969 C 422.878906 82.917969 417.929688 77.785156 417.929688 60.949219 L 417.929688 35.273438 C 417.929688 17.636719 422.683594 12.535156 439.117188 12.535156 L 475.285156 12.535156 C 489.636719 12.535156 495.761719 17.1875 495.761719 28.085938 L 495.761719 28.96875 Z M 505.964844 28.96875 "/>
</g>
</svg>
